<?xml version="1.0" standalone="no"?>
<!DOCTYPE svg PUBLIC "-//W3C//DTD SVG 20010904//EN"
 "http://www.w3.org/TR/2001/REC-SVG-20010904/DTD/svg10.dtd">
<svg version="1.0" xmlns="http://www.w3.org/2000/svg"
 width="820.000000pt" height="312.000000pt" viewBox="0 0 820.000000 312.000000"
 preserveAspectRatio="xMidYMid meet">
<metadata>
Created by potrace 1.15, written by Peter Selinger 2001-2017
</metadata>
<g transform="translate(0.000000,312.000000) scale(0.100000,-0.100000)"
fill="#000000" stroke="none">
<path d="M7323 2694 c-25 -25 -25 -29 -20 -107 3 -45 10 -83 16 -85 6 -2 11
-10 11 -17 0 -20 62 -83 93 -94 25 -10 27 -15 28 -78 2 -73 4 -66 24 54 4 23
12 41 18 40 7 -1 12 37 15 104 3 93 1 111 -17 147 -25 49 -46 62 -101 62 -31
0 -47 -6 -67 -26z"/>
<path d="M2790 2691 c0 -5 7 -12 16 -15 14 -5 16 -22 12 -125 -3 -79 -9 -125
-17 -135 -12 -14 -8 -16 40 -16 44 0 50 2 37 13 -11 8 -18 31 -20 67 l-3 55
48 3 c38 2 52 -1 63 -15 12 -16 13 -14 14 25 0 46 -4 50 -27 26 -16 -15 -101
-17 -95 -1 1 4 2 30 2 57 l0 50 58 0 c51 0 60 -3 70 -22 10 -22 11 -21 11 10
l1 32 -105 0 c-58 0 -105 -4 -105 -9z"/>
<path d="M3336 2581 c-13 -15 -26 -19 -43 -15 -16 4 -31 0 -43 -11 -18 -16
-20 -16 -20 -2 0 24 -14 28 -39 10 -16 -11 -20 -18 -12 -26 15 -15 14 -110 -1
-125 -9 -9 0 -12 43 -12 45 1 51 2 34 12 -28 16 -35 28 -35 64 0 38 13 49 67
58 l42 6 3 -66 c4 -79 19 -96 65 -74 l28 13 -30 6 c-29 6 -30 8 -30 66 0 58 1
60 28 63 36 4 35 22 -2 22 -19 0 -31 6 -33 16 -3 14 -6 13 -22 -5z"/>
<path d="M3645 2564 c-14 -11 -16 -18 -7 -21 12 -5 18 -114 6 -125 -3 -3 -14
-4 -25 -1 -17 5 -19 14 -19 79 0 72 -1 74 -25 74 -25 0 -33 -14 -15 -25 16
-10 12 -101 -4 -114 -8 -7 -27 -11 -43 -9 -28 3 -28 4 -31 76 -3 69 -4 72 -27
72 -26 0 -32 -9 -16 -25 6 -6 11 -39 13 -74 4 -78 18 -92 74 -72 29 10 38 11
44 1 5 -9 13 -9 25 -3 9 6 40 8 68 5 46 -4 51 -3 39 11 -8 9 -12 35 -10 69 3
50 5 53 32 56 16 2 32 -2 37 -10 13 -20 11 -102 -3 -116 -9 -9 -3 -12 27 -12
30 0 36 3 27 12 -7 7 -12 39 -12 73 0 34 -5 66 -12 73 -15 15 -64 16 -73 2 -9
-15 -25 -12 -25 5 0 19 -20 19 -45 -1z"/>
<path d="M3015 2545 c-35 -34 -35 -96 0 -130 55 -55 155 -12 155 66 0 55 -34
89 -90 89 -30 0 -47 -6 -65 -25z"/>
<path d="M3845 2550 c-9 -10 -20 -39 -22 -64 -5 -38 -2 -48 20 -70 32 -32 76
-34 108 -5 l24 20 -25 -7 c-51 -15 -90 4 -90 43 0 15 4 17 68 33 47 12 51 21
22 50 -26 26 -81 26 -105 0z"/>
<path d="M2363 2447 c-2 -4 3 -10 11 -13 23 -9 24 -252 1 -260 -30 -12 -14
-24 30 -24 49 0 55 6 28 26 -14 10 -19 31 -22 99 -2 50 1 91 7 97 7 7 27 -24
63 -96 29 -58 55 -106 58 -106 4 0 32 53 63 118 l56 117 1 -111 c1 -105 0
-112 -21 -127 -21 -13 -7 -15 160 -15 100 0 182 2 182 5 0 3 -7 11 -16 17 -12
9 -14 22 -8 64 6 45 10 53 32 59 35 8 54 -20 49 -72 -2 -22 -7 -48 -11 -57 -7
-16 2 -17 118 -15 132 3 159 -4 124 -33 -47 -38 14 -82 91 -65 62 13 101 66
69 93 -7 5 -39 13 -71 17 -63 8 -64 16 -4 35 40 13 60 42 51 78 -4 14 1 21 17
25 36 10 16 18 -50 22 -49 2 -66 -1 -86 -17 -29 -23 -33 -63 -8 -90 15 -17 15
-19 -3 -33 -36 -27 -44 -19 -44 49 0 66 -14 96 -46 96 -29 0 -84 -29 -84 -44
0 -22 9 -20 37 6 29 27 56 16 61 -24 3 -22 -2 -26 -35 -33 -52 -10 -73 -22
-73 -45 0 -11 -4 -20 -10 -20 -6 0 -10 28 -10 64 0 86 -27 114 -81 85 -16 -8
-23 -7 -32 5 -11 15 -14 15 -35 0 -17 -12 -21 -19 -13 -27 6 -6 11 -37 11 -69
0 -55 -1 -58 -25 -58 -24 0 -25 2 -25 64 0 66 -14 96 -46 96 -29 0 -84 -29
-84 -44 0 -22 9 -20 37 6 29 27 56 16 61 -25 3 -23 -1 -27 -35 -33 -54 -9 -73
-22 -73 -45 0 -12 -5 -19 -12 -17 -9 3 -14 40 -16 129 -2 104 0 126 13 135 22
16 8 22 -40 19 -51 -3 -53 -4 -37 -14 11 -6 2 -31 -38 -111 l-52 -104 -54 100
c-45 84 -51 101 -39 110 8 6 15 13 15 16 0 8 -101 4 -107 -5z"/>
<path d="M3606 2317 c-15 -11 -16 -17 -7 -35 14 -26 15 -99 1 -107 -21 -13 -9
-25 25 -25 19 0 35 5 35 10 0 6 -5 10 -10 10 -7 0 -10 22 -8 56 3 64 23 88 56
68 20 -13 30 -100 13 -117 -19 -19 -12 -27 24 -27 19 0 35 5 35 10 0 6 -5 10
-10 10 -19 0 -8 111 13 124 32 20 52 -4 55 -68 2 -34 -1 -56 -8 -56 -5 0 -10
-4 -10 -10 0 -5 16 -10 35 -10 34 0 46 12 25 25 -5 3 -10 32 -10 64 0 82 -35
112 -88 75 -21 -15 -25 -15 -43 2 -18 16 -22 17 -54 1 -30 -14 -35 -15 -35 -2
0 19 -11 19 -34 2z"/>
<path d="M3915 2305 c-19 -18 -25 -35 -25 -70 0 -58 25 -85 78 -85 26 0 45 7
57 20 20 22 14 26 -14 9 -28 -18 -70 -3 -77 27 -8 31 3 40 63 49 23 3 43 11
43 16 0 20 -50 59 -75 59 -14 0 -37 -11 -50 -25z"/>
<path d="M4058 2320 c-15 -9 -15 -13 -1 -41 16 -32 11 -92 -9 -116 -8 -10 -1
-13 31 -13 22 0 41 5 41 10 0 6 -4 10 -10 10 -6 0 -10 27 -10 60 0 55 2 60 25
66 38 9 55 -11 55 -67 0 -26 -4 -51 -10 -54 -22 -14 -8 -25 32 -25 39 0 40 1
25 18 -12 13 -17 37 -17 79 0 77 -14 93 -68 73 -26 -9 -37 -10 -40 -1 -4 13
-21 14 -44 1z"/>
<path d="M6837 1642 c-18 -20 -34 -83 -42 -168 -17 -168 -32 -451 -25 -469 5
-11 9 -16 9 -12 2 24 32 -29 42 -72 6 -28 13 -51 16 -51 2 0 2 35 -1 78 -4 51
-3 68 3 50 9 -28 39 -312 44 -423 2 -33 4 10 6 95 3 162 6 173 20 75 l9 -60 2
75 c2 41 4 102 4 135 1 33 8 170 16 303 16 279 8 371 -36 430 -28 36 -44 40
-67 14z"/>
</g>
</svg>
